<svg width="996" height="545" viewBox="0 0 996 545" fill="none" xmlns="http://www.w3.org/2000/svg">
<g clip-path="url(#clip0)">
<path opacity="0.24" d="M891.02 392.25C886.154 407.019 882.848 420.986 881.959 433.927C876.559 512.268 782.974 515.314 721.564 508.859C679.051 504.381 638.756 484.409 596.002 483.575C573.338 483.159 550.622 488.128 528.136 485.317C504.645 482.357 482.975 471.083 462.906 458.292C456.471 454.199 450.12 449.828 443.947 445.201C415.559 423.892 390.834 396.717 382.181 362.329C372.962 325.771 383.363 287.204 395.48 251.512C420.467 177.873 456.409 102.941 521.167 61.6384C584.388 21.3298 729.087 -14.7364 800.751 6.06977C873.556 27.282 945.252 76.2145 965.698 150.741C984.061 217.615 916.488 315.181 891.02 392.25Z" fill="#56D3A5"/>
<path opacity="0.42" d="M891.02 392.25C886.154 407.019 882.848 420.986 881.959 433.927C876.559 512.268 782.974 515.314 721.564 508.859C679.051 504.381 638.756 484.409 596.002 483.575C573.338 483.159 550.622 488.128 528.136 485.317C504.645 482.357 482.975 471.083 462.906 458.292C456.471 454.199 450.12 449.828 443.947 445.201C444.309 443.944 444.807 442.732 445.432 441.589C454.986 424.128 500.408 416.006 517.84 410.844C569.059 395.585 622.244 387.837 675.441 384.994C747.325 381.115 819.251 386.01 891.02 392.25Z" fill="#56D3A5"/>
<path opacity="0.24" d="M427.676 206.993C411.882 269.557 406.199 334.335 410.851 398.769C411.301 404.999 412.326 412.084 417.432 415.536C420.184 417.385 423.616 417.78 426.912 417.962C464.853 420.099 500.826 402.306 534.822 384.962C513.86 345.822 494.436 305.863 476.551 265.084C467.803 245.1 489.107 196.029 481.165 175.704C479.25 170.82 452.286 173.16 444.867 174.261C435.115 175.693 428.837 202.398 427.676 206.993Z" fill="#56D3A5"/>
<path d="M694.652 323.858L527.613 413.623L524.599 415.258C524.599 415.258 400.753 301.983 444.867 174.25L630.458 155.015C630.467 155.179 630.467 155.343 630.458 155.507C630.05 163.596 625.781 269.016 690.226 320.449C691.656 321.639 693.131 322.776 694.652 323.858Z" fill="#56D3A5"/>
<path d="M694.652 323.858L667.886 338.242L527.613 413.623C512.964 399.464 408.517 293.06 449.586 174.25L630.416 155.528C630.155 160.925 628.156 209.665 646.028 256.813C654.911 280.269 668.744 303.351 690.184 320.471C691.641 321.646 693.131 322.776 694.652 323.858Z" fill="url(#paint0_linear)"/>
<path opacity="0.26" d="M579.763 197.215C582.948 198.818 586.498 199.512 590.038 199.224C591.8 199.063 593.503 198.499 595.023 197.573C596.542 196.649 597.839 195.387 598.817 193.881C599.458 192.915 599.753 191.752 599.654 190.59C599.521 189.91 599.28 189.257 598.942 188.655C594.757 180.352 588.678 173.257 582.337 166.546C580.695 164.594 578.697 162.987 576.456 161.812C573.15 160.348 565.71 160.23 563.188 163.479C561.002 166.31 562.362 172.712 563.084 175.853C565.114 184.99 571.277 193.283 579.763 197.215Z" fill="url(#paint1_linear)"/>
<path d="M602.534 193.387C610.681 188.584 610.931 173.448 603.093 159.581C595.254 145.715 582.294 138.368 574.147 143.173C565.999 147.977 565.749 163.112 573.588 176.979C581.427 190.845 594.386 198.192 602.534 193.387Z" fill="#56D3A5"/>
<path d="M602.534 193.387C610.681 188.584 610.931 173.448 603.093 159.581C595.254 145.715 582.294 138.368 574.147 143.173C565.999 147.977 565.749 163.112 573.588 176.979C581.427 190.845 594.386 198.192 602.534 193.387Z" fill="url(#paint2_linear)"/>
<path d="M604.559 193.383C612.046 188.989 611.759 174.134 603.921 160.204C596.081 146.274 583.658 138.543 576.172 142.937C568.686 147.331 568.972 162.186 576.811 176.116C584.65 190.046 597.073 197.777 604.559 193.383Z" fill="url(#paint3_linear)"/>
<path d="M582.462 150.067L611.865 131.067L625.666 149.448L598.963 176.163C598.963 176.163 578.256 180.395 582.462 150.067Z" fill="#56D3A5"/>
<path d="M582.462 150.067L611.865 131.067L625.666 149.448L598.963 176.163C598.963 176.163 578.256 180.395 582.462 150.067Z" fill="url(#paint4_linear)"/>
<path d="M635.627 153.22C635.193 153.661 634.704 154.042 634.173 154.353C628.041 157.964 618.3 152.418 612.388 141.978C606.476 131.537 606.664 120.156 612.796 116.512C613.23 116.241 613.694 116.023 614.177 115.861C620.309 113.723 629.119 119.205 634.581 128.887C639.97 138.409 640.304 148.742 635.627 153.22Z" fill="#56D3A5"/>
<path d="M756.407 271.25C757.129 281.466 754.764 303.715 750.998 313.215C748.612 319.199 745.347 321.475 742.972 327.459C741.057 307.786 742.24 279.286 745.065 259.73C745.745 255.017 745.232 249.514 746.31 245.058C751.594 252.26 755.769 262.198 756.407 271.25Z" fill="#56D3A5"/>
<path d="M700.564 322.843L707.668 444.261L720.632 446.205L726.544 354.015L731.912 445.992L744.751 446.408C744.751 446.408 750.726 353.513 749.397 346.705C748.068 339.898 749.397 318.205 749.397 318.205L700.564 322.843Z" fill="#606161"/>
<path d="M749.062 324.991C742.669 334.512 729.516 334.822 718.362 334.17C714.532 333.946 710.514 333.679 707.135 331.702C698.659 326.701 697.623 321.155 698.513 311.056C695.374 280.803 696.985 248.531 701.265 244.737C703.561 242.655 706.187 240.986 709.029 239.8C711.426 238.766 714.013 238.273 716.615 238.357C717.918 238.393 719.222 238.332 720.517 238.176C726.094 237.599 731.849 235.932 736.872 238.015C740.367 239.458 743.296 242.119 746.122 244.737C750.589 248.798 754.084 317.511 749.062 324.991Z" fill="#56D3A5"/>
<path d="M720.517 238.176C719.222 238.332 717.918 238.393 716.615 238.357C714.013 238.273 711.426 238.766 709.029 239.8C709.217 238.467 709.217 237.115 709.029 235.782C708.212 231.454 703.682 229.028 701.265 225.341C699.46 222.292 698.763 218.69 699.297 215.168C700.072 207.998 701.819 199.684 710.745 201.96C717.954 203.777 723.154 210.915 724.347 218.438C725.352 225.192 723.562 232.063 720.517 238.176Z" fill="url(#paint5_linear)"/>
<path d="M700.093 201.8C701.139 205.508 704.163 208.275 707.417 210.263C709.042 211.119 710.566 212.162 711.958 213.373C716.227 217.647 715.181 224.722 715.097 230.824C715.097 235.151 715.788 239.672 718.32 243.145C722.662 249.076 730.813 250.23 738.054 250.422C738.834 250.531 739.626 250.369 740.304 249.963C740.835 249.482 741.181 248.822 741.277 248.103C742.7 241.296 736.432 234.927 736.935 227.981C737.228 224.059 739.655 220.629 740.44 216.771C741.591 211.182 739.121 205.369 735.491 201.03C734.046 199.158 732.188 197.661 730.071 196.66C726.283 195.035 721.825 195.944 717.985 194.458C715.746 193.593 713.863 191.979 711.655 191.06C705.565 188.559 698.303 195.431 700.093 201.8Z" fill="#606161"/>
<path opacity="0.26" d="M710.096 269.925C710.096 269.925 704.048 283.069 694.128 290.763C694.128 290.763 695.112 329.65 710.807 332.856C710.807 332.856 718.205 336.19 731.546 333.786C731.546 333.786 714.281 328.443 715.328 310.543C717.159 279.19 710.096 269.925 710.096 269.925Z" fill="url(#paint6_linear)"/>
<path d="M698.356 452.66C698.136 452.851 697.958 453.086 697.833 453.351C697.706 453.616 697.635 453.905 697.623 454.199C697.694 454.614 697.906 454.993 698.22 455.267C699.369 456.225 700.779 456.795 702.259 456.902C707.028 457.628 711.891 457.352 716.552 456.09C717.733 455.88 718.825 455.314 719.691 454.466C720.674 453.312 720.737 451.645 720.81 450.117L720.946 444.838C720.986 444.429 720.939 444.018 720.81 443.63C720.423 442.668 719.21 442.422 718.195 442.348C715.758 442.169 713.312 442.123 710.87 442.209C710.002 442.209 708.882 442.08 708.191 442.647C707.501 443.213 707.26 444.303 706.8 444.891C704.362 447.937 700.919 449.817 698.356 452.66Z" fill="#606161"/>
<path d="M722.924 452.681C722.713 452.866 722.542 453.093 722.421 453.349C722.3 453.605 722.232 453.883 722.223 454.167C722.279 454.583 722.485 454.964 722.798 455.235C723.903 456.161 725.265 456.71 726.691 456.806C731.302 457.51 736.005 457.245 740.513 456.026C741.644 455.818 742.69 455.272 743.516 454.455C744.324 453.222 744.693 451.744 744.563 450.266L744.699 445.158C744.738 444.765 744.692 444.366 744.563 443.993C744.186 443.053 743.014 442.829 742.03 442.754C739.662 442.574 737.287 442.527 734.915 442.615C734.078 442.615 733 442.497 732.331 443.042C731.661 443.587 731.431 444.635 730.981 445.18C728.731 448.118 725.393 449.956 722.924 452.681Z" fill="#606161"/>
<path d="M686.898 276.507C684.649 285.762 682.409 295.55 685.046 304.698C686.387 308.738 688.193 312.601 690.424 316.207L701.537 335.859C701.801 336.424 702.187 336.921 702.667 337.312C703.306 337.65 704.047 337.727 704.741 337.528C705.433 337.33 706.028 336.871 706.402 336.244C707.104 334.956 707.444 333.495 707.386 332.023C708.076 316.773 701.286 311.922 704.069 296.918C705.115 291.073 711.498 274.765 712.105 268.845C712.712 262.925 714.721 251.395 711.058 246.778C698.9 231.497 688.708 269.07 686.898 276.507Z" fill="#56D3A5"/>
<g opacity="0.26">
<path opacity="0.26" d="M635.627 153.22C629.485 155.357 620.717 149.843 615.255 140.193C609.793 130.544 609.531 120.381 614.208 115.861C620.34 113.723 629.15 119.205 634.612 128.887C639.97 138.409 640.304 148.742 635.627 153.22Z" fill="url(#paint7_linear)"/>
</g>
<path d="M596.082 213.688L486.31 230.042C483.737 230.426 481.955 232.868 482.331 235.496C482.706 238.123 485.096 239.943 487.67 239.56L597.442 223.204C600.015 222.822 601.797 220.38 601.421 217.752C601.046 215.124 598.655 213.304 596.082 213.688Z" fill="url(#paint8_linear)"/>
<path d="M603.987 247.203L497.884 280.271C495.397 281.046 493.996 283.733 494.754 286.274C495.513 288.814 498.145 290.245 500.633 289.47L606.735 256.402C609.223 255.626 610.624 252.939 609.865 250.399C609.105 247.858 606.474 246.428 603.987 247.203Z" fill="url(#paint9_linear)"/>
<path d="M622.499 274.259L522.971 324.297C520.638 325.471 519.677 328.353 520.826 330.736C521.975 333.119 524.797 334.1 527.13 332.927L626.658 282.888C628.991 281.715 629.952 278.833 628.803 276.45C627.654 274.067 624.832 273.087 622.499 274.259Z" fill="url(#paint10_linear)"/>
<path d="M708.118 343.2C709.761 343.126 710.901 341.501 711.477 339.93C712.315 337.46 712.393 334.786 711.701 332.269C711.008 329.752 709.58 327.511 707.605 325.846C707.446 325.694 707.246 325.597 707.03 325.568C706.674 325.568 706.454 325.942 706.298 326.263C704.895 329.148 701.84 333.219 702.499 336.575C702.939 338.819 705.565 343.318 708.118 343.2Z" fill="url(#paint11_linear)"/>
<path opacity="0.26" d="M694.652 323.858L667.886 338.242C660.453 334.609 653.804 329.497 648.33 323.206C642.763 316.869 639.153 308.107 641.005 299.75C641.937 295.422 644.28 291.479 645.191 287.151C646.31 281.808 645.275 276.294 643.527 271.121C641.999 266.601 640.294 260.724 643.967 257.764C644.565 257.233 645.285 256.865 646.059 256.695C654.943 280.151 668.776 303.234 690.215 320.353C691.652 321.607 693.131 322.776 694.652 323.858Z" fill="url(#paint12_linear)"/>
<path opacity="0.24" d="M766.17 207.923L750.474 236.786L788.844 223.247L766.17 207.923Z" fill="#56D3A5"/>
<path opacity="0.24" d="M817.106 232.779C860.164 232.779 895.069 197.131 895.069 153.156C895.069 109.181 860.164 73.5322 817.106 73.5322C774.048 73.5322 739.142 109.181 739.142 153.156C739.142 197.131 774.048 232.779 817.106 232.779Z" fill="#56D3A5"/>
<path d="M811.351 228.761C854.409 228.761 889.314 193.113 889.314 149.138C889.314 105.163 854.409 69.5142 811.351 69.5142C768.293 69.5142 733.387 105.163 733.387 149.138C733.387 193.113 768.293 228.761 811.351 228.761Z" fill="white"/>
<path d="M852.315 133.92C852.523 134.776 852.81 135.61 853.173 136.41C853.158 136.52 853.166 136.633 853.196 136.739C853.227 136.846 853.28 136.946 853.351 137.03L853.99 139.509C853.951 139.804 854.025 140.103 854.199 140.343L854.659 143.228C854.634 143.34 854.633 143.457 854.657 143.569C854.68 143.682 854.727 143.788 854.795 143.88L855.057 146.968V147.823V150.912V151.766L854.774 155.485C854.642 155.824 854.587 156.191 854.617 156.554L853.937 160.294L853.571 161.747L852.096 166.311L851.332 168.181C850.247 170.447 849.049 172.655 847.743 174.795L844.541 179.155C842.992 180.865 841.381 182.511 839.707 184.092L835.438 187.362C833.346 188.705 831.184 189.928 828.961 191.028L827.13 191.808L822.662 193.325L821.228 193.689L817.577 194.383C817.22 194.357 816.861 194.415 816.53 194.554L812.889 194.832H812.052H809.018H808.191L805.355 194.586C805.107 194.434 804.814 194.376 804.529 194.426L801.704 193.945C801.468 193.772 801.175 193.699 800.887 193.742L798.46 193.09C798.289 192.949 798.072 192.881 797.853 192.898C797.131 192.549 796.372 192.284 795.593 192.107L794.777 191.744L792.558 190.803L791.941 190.483L790.162 189.585L789.294 189.051L787.735 188.132C787.494 187.867 787.192 187.668 786.856 187.555L785.318 186.486C785.025 186.272 784.732 186.059 784.449 185.834L782.984 184.659C782.786 184.369 782.52 184.134 782.21 183.975L780.724 182.596C780.676 182.487 780.606 182.39 780.52 182.309C780.433 182.228 780.333 182.166 780.222 182.126L778.705 180.513L778.129 179.861L776.916 178.418L776.288 177.595L775.074 175.928C774.942 175.597 774.738 175.301 774.478 175.063C774.204 174.474 773.852 173.928 773.431 173.438L773.055 172.808L771.872 170.585L771.621 170.115L770.774 168.255C770.739 167.941 770.603 167.648 770.386 167.422C770.189 166.63 769.904 165.863 769.539 165.135L769.277 164.28L768.566 162.015C768.586 161.722 768.504 161.43 768.336 161.192C768.225 160.274 768.029 159.369 767.75 158.488L767.634 157.633L767.289 155.175C767.337 154.752 767.284 154.323 767.132 153.925L767.028 151.029C767.103 150.673 767.081 150.305 766.965 149.961C767.093 148.865 767.14 147.761 767.101 146.658L767.174 145.59C767.331 144.521 767.498 143.367 767.655 142.245C767.739 141.775 767.812 141.305 767.896 140.824L768.942 136.677C769.176 136.228 769.327 135.739 769.392 135.235C770.146 133.429 770.889 131.623 771.642 129.828L772.835 127.541C775.509 122.963 778.907 118.868 782.89 115.422C784.867 113.807 786.935 112.312 789.085 110.945L791.313 109.727L796.608 107.429C797.107 107.375 797.591 107.218 798.031 106.97L802.091 105.901L803.482 105.666L806.757 105.164L807.804 105.089C808.884 105.128 809.964 105.081 811.037 104.95C811.373 105.069 811.736 105.091 812.083 105.014L815.118 105.121C815.442 105.284 815.807 105.34 816.164 105.281L818.571 105.634L819.617 105.816C820.423 106.068 821.249 106.247 822.086 106.35C822.319 106.523 822.604 106.607 822.892 106.585L825.1 107.312L825.947 107.579C826.659 107.945 827.406 108.235 828.176 108.444C828.405 108.659 828.694 108.798 829.003 108.84L830.813 109.695C830.918 109.887 831.106 109.908 831.284 109.962L833.46 111.169L834.078 111.554C834.561 111.978 835.096 112.337 835.668 112.623L836.516 113.232L838.211 114.407L839.016 115.048L840.429 116.288L841.067 116.876L842.647 118.425L843.108 118.938L844.468 120.456C844.616 120.774 844.843 121.047 845.127 121.246L846.288 122.743L846.916 123.619L848.088 125.382C848.172 125.661 848.331 125.909 848.549 126.098L849.448 127.69L849.972 128.577L850.851 130.394L851.175 131.035L852.085 133.301L852.315 133.92ZM806.852 125.371C806.656 125.756 806.596 126.197 806.684 126.622C806.684 127.071 806.287 127.081 806.046 127.274C804.122 128.06 802.373 129.234 800.904 130.727C799.435 132.22 798.277 134.001 797.497 135.961C796.697 137.455 796.106 139.056 795.739 140.717C795.55 141.177 795.446 141.67 795.436 142.17C795.058 143.457 794.83 144.783 794.756 146.124C794.64 146.467 794.613 146.836 794.683 147.193C794.491 148.285 794.424 149.397 794.484 150.506V151.574L794.201 154.898L793.866 156.351C793.762 156.597 793.657 156.853 793.563 157.11C793.149 158.408 792.457 159.595 791.538 160.586C790.619 161.576 789.495 162.346 788.248 162.837C787.314 163.219 786.538 163.917 786.048 164.813C785.558 165.711 785.386 166.752 785.558 167.764C785.549 168.149 785.667 168.525 785.893 168.832C786.104 169.634 786.615 170.317 787.316 170.735C787.382 170.846 787.472 170.94 787.579 171.01C787.686 171.081 787.807 171.126 787.934 171.141C788.718 171.654 789.663 171.847 790.581 171.686H803.608L806.642 171.739V172.348C806.488 173.264 806.619 174.207 807.019 175.041C807.023 175.166 807.055 175.288 807.111 175.399C807.167 175.51 807.246 175.606 807.343 175.682C807.731 176.48 808.412 177.087 809.237 177.371C809.467 177.576 809.759 177.692 810.064 177.702C810.949 177.926 811.881 177.865 812.731 177.524C813.581 177.183 814.305 176.58 814.804 175.8C815.483 174.637 815.735 173.266 815.515 171.931L815.756 171.686H832.027C832.643 171.717 833.259 171.615 833.836 171.388C834.411 171.161 834.935 170.813 835.371 170.367C835.807 169.921 836.148 169.387 836.37 168.799C836.593 168.211 836.692 167.581 836.662 166.952C836.699 166.807 836.706 166.657 836.683 166.509C836.659 166.362 836.606 166.222 836.526 166.097C836.453 165.296 836.077 164.557 835.48 164.034C835.409 163.829 835.262 163.66 835.072 163.564C834.44 163.023 833.706 162.619 832.916 162.378L832.299 161.961L830.886 160.668L830.248 159.877L829.202 157.997L828.909 157.334L828.27 155.058L828.113 153.989L827.967 151.115V150.046C827.993 149.078 827.941 148.11 827.81 147.15C827.873 146.787 827.821 146.413 827.663 146.081C827.673 145.161 827.539 144.244 827.266 143.367L827.13 142.523C827.028 141.757 826.845 141.004 826.586 140.279C826.563 139.896 826.44 139.528 826.23 139.21C826.09 138.405 825.806 137.634 825.393 136.934C825.365 136.611 825.232 136.307 825.016 136.068C824.804 135.391 824.474 134.757 824.043 134.198C823.964 133.895 823.796 133.622 823.562 133.418C823.256 132.791 822.845 132.223 822.348 131.74C822.22 131.463 822.017 131.229 821.762 131.067C821.38 130.508 820.897 130.03 820.339 129.657C820.281 129.548 820.202 129.451 820.107 129.374C820.012 129.298 819.902 129.241 819.785 129.208C819.267 128.667 818.643 128.244 817.953 127.968C817.656 127.692 817.296 127.498 816.907 127.402C816.541 126.985 815.641 127.231 815.651 126.333C815.689 126.192 815.696 126.045 815.673 125.901C815.65 125.757 815.596 125.62 815.515 125.5C815.451 124.691 815.074 123.942 814.469 123.416C814.272 123.075 813.976 122.806 813.621 122.646C812.995 122.133 812.204 121.879 811.403 121.93C810.924 121.802 810.417 121.851 809.97 122.069C809.18 122.238 808.458 122.645 807.896 123.237C807.335 123.83 806.96 124.581 806.82 125.393L806.852 125.371Z" fill="#56D3A5"/>
<path d="M766.17 202.045L750.474 230.909L788.844 217.37L766.17 202.045Z" fill="white"/>
<path opacity="0.26" d="M571.831 437.517C586.802 436.704 601.642 440.756 614.219 449.091C617.295 451.132 620.361 453.483 623.981 454.038C628.972 454.797 633.733 451.997 638.149 449.518C656.448 439.405 676.568 433.194 697.288 431.261C718.009 429.329 738.899 431.715 758.688 438.276C765.489 440.563 773.337 445.244 772.824 452.532C772.594 455.609 770.794 458.345 768.712 460.578C758.019 472.023 740.733 472.942 725.247 473.103L624.797 474.171C615.652 474.268 606.465 474.364 597.415 473.049C585.465 471.318 573.945 467.161 561.985 465.569C545.756 463.368 529.245 465.89 512.922 464.639C491.958 462.992 471.9 455.221 455.143 442.251C458.868 429.738 472.282 423.465 484.388 419.169C528.335 403.546 581.228 387.912 628.198 390.028C626.848 403.45 582.954 427.248 571.831 437.517Z" fill="url(#paint13_linear)"/>
<path opacity="0.52" d="M363.083 507.496C358.975 508.658 354.309 510.323 352.877 514.338C351.571 518.018 353.778 522.222 357.065 524.364C360.353 526.506 364.371 527.064 368.271 527.371C379.979 528.324 391.689 527.803 403.398 527.29L475.824 524.076C489.991 523.455 505.015 522.546 516.643 514.428C518.445 513.176 520.245 511.322 519.858 509.189C519.543 507.586 518.057 506.489 516.625 505.732C504.015 498.712 488.586 500.035 474.147 498.982C455.098 497.587 436.264 491.592 417.062 492.384C398.822 493.096 380.673 502.502 363.083 507.496Z" fill="url(#paint14_linear)"/>
<path d="M384.429 261.334C384.429 261.334 415.107 207.914 425.862 191.011L432.76 182.658L439.525 194.153L439.678 203.406L411.378 256.699C411.378 256.699 391.148 275.187 384.429 261.334Z" fill="#56D3A5"/>
<path d="M439.984 184.071L406.253 252.558L430.383 221.911L439.705 203.441L439.984 184.071Z" fill="url(#paint15_linear)"/>
<path d="M479.597 179.976C480.884 181.743 481.5 183.909 481.336 186.088C485.443 182.721 485.505 175.647 490.181 173.118C490.181 175.83 489.702 178.52 488.766 181.065C490.253 178.006 492.081 174.63 495.351 173.657C494.917 177.143 493.641 180.471 491.631 183.352L495.891 179.05C496.269 178.662 496.791 178.24 497.305 178.5C497.818 178.761 497.683 179.652 497.404 180.246L492.702 190.292C494.189 189.095 495.806 188.069 497.521 187.231L492.36 195.728C491.774 196.807 491.054 197.808 490.216 198.707C488.298 200.633 485.245 201.758 484.587 204.395C484.731 203.828 477.165 201.416 476.634 200.597C475.733 199.184 477.39 196.214 477.579 194.521C478.12 189.769 476.823 184.278 479.597 179.976Z" fill="url(#paint16_linear)"/>
<path d="M434.508 352.557L444.902 428.218C445.334 431.404 445.001 434.646 443.929 437.678L432.392 490.945L414.503 489.054L422.691 434.627C422.87 433.506 422.8 432.359 422.484 431.269L408.378 382.665L405.676 437.714L382.555 484.518L366.343 478.038L386.933 435.95L383.628 383.961C380.7 365.869 386.05 352.512 386.05 352.512L434.508 352.557Z" fill="#3F3D56"/>
<path d="M434.508 344.502H386.014V352.557H434.508V344.502Z" fill="#56D3A5"/>
<path d="M434.508 344.502H386.014V352.557H434.508V344.502Z" fill="url(#paint17_linear)"/>
<path d="M487.767 206.07L442.146 281.37L439.769 337.886C439.769 343.287 439.552 347.787 435.535 349.02C434.752 349.241 433.942 349.347 433.129 349.335H392.77C389.714 349.335 386.785 348.126 384.621 345.971C382.456 343.817 381.235 340.893 381.222 337.841V285.889C381.222 285.889 378.251 256.447 392.229 256.447H420.213C423.554 256.451 426.852 255.698 429.859 254.243C432.865 252.788 435.502 250.67 437.57 248.049L474.913 198.878L487.767 206.07Z" fill="#56D3A5"/>
<path d="M417.98 221.164H403.983V256.726H417.98V221.164Z" fill="url(#paint18_linear)"/>
<path d="M404.001 217.275V256.735H411.387V254.331C411.387 252.918 411.948 251.563 412.949 250.564C413.949 249.565 415.305 249.003 416.72 249.003H417.142C420.659 249.003 424.031 247.607 426.518 245.123C429.004 242.638 430.401 239.268 430.401 235.754V217.275H404.001Z" fill="url(#paint19_linear)"/>
<path d="M435.868 182.766C436.147 182.182 436.354 181.569 436.661 180.967C437.295 179.894 438.084 178.92 439.003 178.077L441.921 175.106C442.12 174.853 442.399 174.676 442.713 174.603C443.317 174.53 443.741 175.269 443.614 175.863C443.436 176.43 443.127 176.949 442.713 177.375C441.225 179.312 440.292 181.619 440.011 184.044C439.747 186.456 439.636 188.882 439.678 191.308C439.732 192.104 439.57 192.9 439.21 193.613C438.294 191.604 437.278 189.642 436.165 187.735C435.778 187.087 434.598 185.817 434.562 185.088C434.526 184.36 435.616 183.405 435.868 182.766Z" fill="url(#paint20_linear)"/>
<path d="M431.661 211.065C431.411 209.697 430.876 208.396 430.089 207.249C429.302 206.101 428.282 205.132 427.095 204.404V206.43C421.862 203.901 415.602 205.889 409.865 204.945C410.529 205.636 411.066 206.441 411.45 207.32C407.698 207.321 403.998 208.193 400.641 209.868L401.542 211.182C401.651 211.318 401.722 211.478 401.749 211.65C401.749 212.001 401.416 212.235 401.137 212.451C399.516 213.684 399.336 216.052 399.426 218.085C399.723 224.242 401.317 230.245 402.903 236.204C403.505 238.463 404.101 240.704 404.703 242.981L405.964 241.245L407.162 242.082C408.802 239.544 415.954 239.012 416.602 236.06C414.801 235.646 412.648 233.207 412.846 231.362C413.044 229.517 413.639 229.103 415.395 229.696C416.62 230.101 414.611 227.599 414.396 226.582C414.179 225.565 413.72 224.53 414.224 223.657C414.918 222.442 416.728 222.756 418.025 223.261C418.589 221.649 419.662 220.263 421.082 219.313C422.501 218.362 424.191 217.896 425.897 217.986C427.699 218.122 429.437 219.211 430.626 217.501C431.815 215.79 432.013 213.045 431.661 211.065Z" fill="#3F3D56"/>
<path d="M487.767 206.07L442.146 281.37L439.769 337.886C439.769 343.287 439.867 348.525 434.202 349.335H426.609C426.609 349.335 433.022 284.709 431.841 278.445C430.662 272.18 484.623 204.387 484.623 204.387L487.767 206.07Z" fill="url(#paint21_linear)"/>
<path d="M417.512 489.343L414.386 502.844H454.918C454.918 502.844 455.341 496.165 446.983 493.843C441.939 492.466 436.638 492.321 431.526 493.419L430.455 490.719L417.512 489.343Z" fill="#3F3D56"/>
<path d="M369.657 479.342L362.524 490.143L370.882 495.013L373.521 493.627L379.511 499.747L400.542 500.44C400.542 500.44 399.156 489.927 389.4 489.901C379.646 489.873 380.511 483.69 380.511 483.69L369.657 479.342Z" fill="#3F3D56"/>
</g>
<path d="M21.492 74.896C22.932 75.352 24.06 76.12 24.876 77.2C25.692 78.256 26.1 79.564 26.1 81.124C26.1 83.332 25.236 85.036 23.508 86.236C21.804 87.412 19.308 88 16.02 88H2.988V62.8H15.3C18.372 62.8 20.724 63.388 22.356 64.564C24.012 65.74 24.84 67.336 24.84 69.352C24.84 70.576 24.54 71.668 23.94 72.628C23.364 73.588 22.548 74.344 21.492 74.896ZM8.784 67.192V73.132H14.58C16.02 73.132 17.112 72.88 17.856 72.376C18.6 71.872 18.972 71.128 18.972 70.144C18.972 69.16 18.6 68.428 17.856 67.948C17.112 67.444 16.02 67.192 14.58 67.192H8.784ZM15.588 83.608C17.124 83.608 18.276 83.356 19.044 82.852C19.836 82.348 20.232 81.568 20.232 80.512C20.232 78.424 18.684 77.38 15.588 77.38H8.784V83.608H15.588ZM30.1193 68.632H35.7353V88H30.1193V68.632ZM32.9273 65.932C31.8953 65.932 31.0553 65.632 30.4073 65.032C29.7593 64.432 29.4353 63.688 29.4353 62.8C29.4353 61.912 29.7593 61.168 30.4073 60.568C31.0553 59.968 31.8953 59.668 32.9273 59.668C33.9593 59.668 34.7993 59.956 35.4473 60.532C36.0953 61.108 36.4193 61.828 36.4193 62.692C36.4193 63.628 36.0953 64.408 35.4473 65.032C34.7993 65.632 33.9593 65.932 32.9273 65.932ZM56.8955 83.68V88H39.6155V84.616L49.4795 72.952H39.8675V68.632H56.5715V72.016L46.7075 83.68H56.8955ZM69.4643 88.288C67.4243 88.288 65.5883 87.868 63.9563 87.028C62.3483 86.164 61.0883 84.976 60.1763 83.464C59.2643 81.952 58.8083 80.236 58.8083 78.316C58.8083 76.396 59.2643 74.68 60.1763 73.168C61.0883 71.656 62.3483 70.48 63.9563 69.64C65.5883 68.776 67.4243 68.344 69.4643 68.344C71.5043 68.344 73.3283 68.776 74.9363 69.64C76.5443 70.48 77.8043 71.656 78.7163 73.168C79.6283 74.68 80.0843 76.396 80.0843 78.316C80.0843 80.236 79.6283 81.952 78.7163 83.464C77.8043 84.976 76.5443 86.164 74.9363 87.028C73.3283 87.868 71.5043 88.288 69.4643 88.288ZM69.4643 83.68C70.9043 83.68 72.0803 83.2 72.9923 82.24C73.9283 81.256 74.3963 79.948 74.3963 78.316C74.3963 76.684 73.9283 75.388 72.9923 74.428C72.0803 73.444 70.9043 72.952 69.4643 72.952C68.0243 72.952 66.8363 73.444 65.9003 74.428C64.9643 75.388 64.4963 76.684 64.4963 78.316C64.4963 79.948 64.9643 81.256 65.9003 82.24C66.8363 83.2 68.0243 83.68 69.4643 83.68ZM95.6101 68.344C98.0101 68.344 99.9421 69.064 101.406 70.504C102.894 71.944 103.638 74.08 103.638 76.912V88H98.0221V77.776C98.0221 76.24 97.6861 75.1 97.0141 74.356C96.3421 73.588 95.3701 73.204 94.0981 73.204C92.6821 73.204 91.5541 73.648 90.7141 74.536C89.8741 75.4 89.4541 76.696 89.4541 78.424V88H83.8381V68.632H89.2021V70.9C89.9461 70.084 90.8701 69.46 91.9741 69.028C93.0781 68.572 94.2901 68.344 95.6101 68.344ZM132.237 62.8V88H126.405V77.668H114.957V88H109.125V62.8H114.957V72.736H126.405V62.8H132.237ZM156.775 78.388C156.775 78.46 156.739 78.964 156.667 79.9H142.015C142.279 81.1 142.903 82.048 143.887 82.744C144.871 83.44 146.095 83.788 147.559 83.788C148.567 83.788 149.455 83.644 150.223 83.356C151.015 83.044 151.747 82.564 152.419 81.916L155.407 85.156C153.583 87.244 150.919 88.288 147.415 88.288C145.231 88.288 143.299 87.868 141.619 87.028C139.939 86.164 138.643 84.976 137.731 83.464C136.819 81.952 136.363 80.236 136.363 78.316C136.363 76.42 136.807 74.716 137.695 73.204C138.607 71.668 139.843 70.48 141.403 69.64C142.987 68.776 144.751 68.344 146.695 68.344C148.591 68.344 150.307 68.752 151.843 69.568C153.379 70.384 154.579 71.56 155.443 73.096C156.331 74.608 156.775 76.372 156.775 78.388ZM146.731 72.592C145.459 72.592 144.391 72.952 143.527 73.672C142.663 74.392 142.135 75.376 141.943 76.624H151.483C151.291 75.4 150.763 74.428 149.899 73.708C149.035 72.964 147.979 72.592 146.731 72.592ZM160.514 61.288H166.13V88H160.514V61.288ZM182.79 68.344C184.59 68.344 186.222 68.764 187.686 69.604C189.174 70.42 190.338 71.584 191.178 73.096C192.018 74.584 192.438 76.324 192.438 78.316C192.438 80.308 192.018 82.06 191.178 83.572C190.338 85.06 189.174 86.224 187.686 87.064C186.222 87.88 184.59 88.288 182.79 88.288C180.318 88.288 178.374 87.508 176.958 85.948V94.984H171.342V68.632H176.706V70.864C178.098 69.184 180.126 68.344 182.79 68.344ZM181.818 83.68C183.258 83.68 184.434 83.2 185.346 82.24C186.282 81.256 186.75 79.948 186.75 78.316C186.75 76.684 186.282 75.388 185.346 74.428C184.434 73.444 183.258 72.952 181.818 72.952C180.378 72.952 179.19 73.444 178.254 74.428C177.342 75.388 176.886 76.684 176.886 78.316C176.886 79.948 177.342 81.256 178.254 82.24C179.19 83.2 180.378 83.68 181.818 83.68ZM215.169 78.388C215.169 78.46 215.133 78.964 215.061 79.9H200.409C200.673 81.1 201.297 82.048 202.281 82.744C203.265 83.44 204.489 83.788 205.953 83.788C206.961 83.788 207.849 83.644 208.617 83.356C209.409 83.044 210.141 82.564 210.813 81.916L213.801 85.156C211.977 87.244 209.313 88.288 205.809 88.288C203.625 88.288 201.693 87.868 200.013 87.028C198.333 86.164 197.037 84.976 196.125 83.464C195.213 81.952 194.757 80.236 194.757 78.316C194.757 76.42 195.201 74.716 196.089 73.204C197.001 71.668 198.237 70.48 199.797 69.64C201.381 68.776 203.145 68.344 205.089 68.344C206.985 68.344 208.701 68.752 210.237 69.568C211.773 70.384 212.973 71.56 213.837 73.096C214.725 74.608 215.169 76.372 215.169 78.388ZM205.125 72.592C203.853 72.592 202.785 72.952 201.921 73.672C201.057 74.392 200.529 75.376 200.337 76.624H209.877C209.685 75.4 209.157 74.428 208.293 73.708C207.429 72.964 206.373 72.592 205.125 72.592ZM224.272 71.188C224.944 70.252 225.844 69.544 226.972 69.064C228.124 68.584 229.444 68.344 230.932 68.344V73.528C230.308 73.48 229.888 73.456 229.672 73.456C228.064 73.456 226.804 73.912 225.892 74.824C224.98 75.712 224.524 77.056 224.524 78.856V88H218.908V68.632H224.272V71.188Z" fill="#56D3A5"/>
<path d="M263.976 68.632V88H258.36V73.24H250.296V88H244.716V68.632H263.976ZM278.432 88.288C276.392 88.288 274.556 87.868 272.924 87.028C271.316 86.164 270.056 84.976 269.144 83.464C268.232 81.952 267.776 80.236 267.776 78.316C267.776 76.396 268.232 74.68 269.144 73.168C270.056 71.656 271.316 70.48 272.924 69.64C274.556 68.776 276.392 68.344 278.432 68.344C280.472 68.344 282.296 68.776 283.904 69.64C285.512 70.48 286.772 71.656 287.684 73.168C288.596 74.68 289.052 76.396 289.052 78.316C289.052 80.236 288.596 81.952 287.684 83.464C286.772 84.976 285.512 86.164 283.904 87.028C282.296 87.868 280.472 88.288 278.432 88.288ZM278.432 83.68C279.872 83.68 281.048 83.2 281.96 82.24C282.896 81.256 283.364 79.948 283.364 78.316C283.364 76.684 282.896 75.388 281.96 74.428C281.048 73.444 279.872 72.952 278.432 72.952C276.992 72.952 275.804 73.444 274.868 74.428C273.932 75.388 273.464 76.684 273.464 78.316C273.464 79.948 273.932 81.256 274.868 82.24C275.804 83.2 276.992 83.68 278.432 83.68ZM311.815 88V76.408L306.019 86.128H303.643L297.991 76.372V88H292.915V68.632H298.783L304.975 79.828L311.563 68.632H316.819L316.891 88H311.815ZM331.342 88.288C329.302 88.288 327.466 87.868 325.834 87.028C324.226 86.164 322.966 84.976 322.054 83.464C321.142 81.952 320.686 80.236 320.686 78.316C320.686 76.396 321.142 74.68 322.054 73.168C322.966 71.656 324.226 70.48 325.834 69.64C327.466 68.776 329.302 68.344 331.342 68.344C333.382 68.344 335.206 68.776 336.814 69.64C338.422 70.48 339.682 71.656 340.594 73.168C341.506 74.68 341.962 76.396 341.962 78.316C341.962 80.236 341.506 81.952 340.594 83.464C339.682 84.976 338.422 86.164 336.814 87.028C335.206 87.868 333.382 88.288 331.342 88.288ZM331.342 83.68C332.782 83.68 333.958 83.2 334.87 82.24C335.806 81.256 336.274 79.948 336.274 78.316C336.274 76.684 335.806 75.388 334.87 74.428C333.958 73.444 332.782 72.952 331.342 72.952C329.902 72.952 328.714 73.444 327.778 74.428C326.842 75.388 326.374 76.684 326.374 78.316C326.374 79.948 326.842 81.256 327.778 82.24C328.714 83.2 329.902 83.68 331.342 83.68ZM364.415 80.656H361.715V88H356.171V80.656H353.471L349.367 88H342.743L348.827 77.992L343.175 68.632H349.115L353.399 76.156H356.171V68.632H361.715V76.156H364.451L368.771 68.632H374.711L369.059 77.992L375.179 88H368.519L364.415 80.656ZM396.329 78.388C396.329 78.46 396.293 78.964 396.221 79.9H381.569C381.833 81.1 382.457 82.048 383.441 82.744C384.425 83.44 385.649 83.788 387.113 83.788C388.121 83.788 389.009 83.644 389.777 83.356C390.569 83.044 391.301 82.564 391.973 81.916L394.961 85.156C393.137 87.244 390.473 88.288 386.969 88.288C384.785 88.288 382.853 87.868 381.173 87.028C379.493 86.164 378.197 84.976 377.285 83.464C376.373 81.952 375.917 80.236 375.917 78.316C375.917 76.42 376.361 74.716 377.249 73.204C378.161 71.668 379.397 70.48 380.957 69.64C382.541 68.776 384.305 68.344 386.249 68.344C388.145 68.344 389.861 68.752 391.397 69.568C392.933 70.384 394.133 71.56 394.997 73.096C395.885 74.608 396.329 76.372 396.329 78.388ZM386.285 72.592C385.013 72.592 383.945 72.952 383.081 73.672C382.217 74.392 381.689 75.376 381.497 76.624H391.037C390.845 75.4 390.317 74.428 389.453 73.708C388.589 72.964 387.533 72.592 386.285 72.592ZM416.238 73.24H409.686V88H404.106V73.24H397.554V68.632H416.238V73.24ZM17.496 125.884C19.776 126.652 20.916 128.188 20.916 130.492C20.916 132.244 20.256 133.6 18.936 134.56C17.616 135.52 15.648 136 13.032 136H2.7V116.632H12.6C15.024 116.632 16.92 117.076 18.288 117.964C19.656 118.828 20.34 120.052 20.34 121.636C20.34 122.596 20.088 123.448 19.584 124.192C19.104 124.912 18.408 125.476 17.496 125.884ZM7.848 124.588H12.096C14.064 124.588 15.048 123.892 15.048 122.5C15.048 121.132 14.064 120.448 12.096 120.448H7.848V124.588ZM12.564 132.184C14.628 132.184 15.66 131.476 15.66 130.06C15.66 129.316 15.42 128.776 14.94 128.44C14.46 128.08 13.704 127.9 12.672 127.9H7.848V132.184H12.564ZM32.6185 116.344C35.6185 116.344 37.9225 117.064 39.5305 118.504C41.1385 119.92 41.9425 122.068 41.9425 124.948V136H36.6865V133.588C35.6305 135.388 33.6625 136.288 30.7825 136.288C29.2945 136.288 27.9985 136.036 26.8945 135.532C25.8145 135.028 24.9865 134.332 24.4105 133.444C23.8345 132.556 23.5465 131.548 23.5465 130.42C23.5465 128.62 24.2185 127.204 25.5625 126.172C26.9305 125.14 29.0305 124.624 31.8625 124.624H36.3265C36.3265 123.4 35.9545 122.464 35.2105 121.816C34.4665 121.144 33.3505 120.808 31.8625 120.808C30.8305 120.808 29.8105 120.976 28.8025 121.312C27.8185 121.624 26.9785 122.056 26.2825 122.608L24.2665 118.684C25.3225 117.94 26.5825 117.364 28.0465 116.956C29.5345 116.548 31.0585 116.344 32.6185 116.344ZM32.1865 132.508C33.1465 132.508 33.9985 132.292 34.7425 131.86C35.4865 131.404 36.0145 130.744 36.3265 129.88V127.9H32.4745C30.1705 127.9 29.0185 128.656 29.0185 130.168C29.0185 130.888 29.2945 131.464 29.8465 131.896C30.4225 132.304 31.2025 132.508 32.1865 132.508ZM65.7211 136V124.408L59.9251 134.128H57.5491L51.8971 124.372V136H46.8211V116.632H52.6891L58.8811 127.828L65.4691 116.632H70.7251L70.7971 136H65.7211ZM95.5879 136.288C93.5239 136.288 91.6639 135.868 90.0079 135.028C88.3759 134.164 87.0919 132.976 86.1559 131.464C85.2439 129.952 84.7879 128.236 84.7879 126.316C84.7879 124.396 85.2439 122.68 86.1559 121.168C87.0919 119.656 88.3759 118.48 90.0079 117.64C91.6639 116.776 93.5239 116.344 95.5879 116.344C97.6279 116.344 99.4039 116.776 100.916 117.64C102.452 118.48 103.568 119.692 104.264 121.276L99.9079 123.616C98.8999 121.84 97.4479 120.952 95.5519 120.952C94.0879 120.952 92.8759 121.432 91.9159 122.392C90.9559 123.352 90.4759 124.66 90.4759 126.316C90.4759 127.972 90.9559 129.28 91.9159 130.24C92.8759 131.2 94.0879 131.68 95.5519 131.68C97.4719 131.68 98.9239 130.792 99.9079 129.016L104.264 131.392C103.568 132.928 102.452 134.128 100.916 134.992C99.4039 135.856 97.6279 136.288 95.5879 136.288ZM136.448 116.632V136H130.832V121.24H124.712L124.532 124.66C124.436 127.204 124.196 129.316 123.812 130.996C123.428 132.676 122.804 133.996 121.94 134.956C121.076 135.916 119.876 136.396 118.34 136.396C117.524 136.396 116.552 136.252 115.424 135.964L115.712 131.356C116.096 131.404 116.372 131.428 116.54 131.428C117.38 131.428 118.004 131.128 118.412 130.528C118.844 129.904 119.132 129.124 119.276 128.188C119.42 127.228 119.528 125.968 119.6 124.408L119.888 116.632H136.448ZM160.676 126.388C160.676 126.46 160.64 126.964 160.568 127.9H145.916C146.18 129.1 146.804 130.048 147.788 130.744C148.772 131.44 149.996 131.788 151.46 131.788C152.468 131.788 153.356 131.644 154.124 131.356C154.916 131.044 155.648 130.564 156.32 129.916L159.308 133.156C157.484 135.244 154.82 136.288 151.316 136.288C149.132 136.288 147.2 135.868 145.52 135.028C143.84 134.164 142.544 132.976 141.632 131.464C140.72 129.952 140.264 128.236 140.264 126.316C140.264 124.42 140.708 122.716 141.596 121.204C142.508 119.668 143.744 118.48 145.304 117.64C146.888 116.776 148.652 116.344 150.596 116.344C152.492 116.344 154.208 116.752 155.744 117.568C157.28 118.384 158.48 119.56 159.344 121.096C160.232 122.608 160.676 124.372 160.676 126.388ZM150.632 120.592C149.36 120.592 148.292 120.952 147.428 121.672C146.564 122.392 146.036 123.376 145.844 124.624H155.384C155.192 123.4 154.664 122.428 153.8 121.708C152.936 120.964 151.88 120.592 150.632 120.592ZM180.497 121.24H170.561V136H164.981V116.632H180.497V121.24ZM192.005 128.656H189.089V136H183.473V116.632H189.089V124.156H192.113L197.369 116.632H203.345L196.577 125.92L203.813 136H197.189L192.005 128.656ZM215.045 136.288C213.005 136.288 211.169 135.868 209.537 135.028C207.929 134.164 206.669 132.976 205.757 131.464C204.845 129.952 204.389 128.236 204.389 126.316C204.389 124.396 204.845 122.68 205.757 121.168C206.669 119.656 207.929 118.48 209.537 117.64C211.169 116.776 213.005 116.344 215.045 116.344C217.085 116.344 218.909 116.776 220.517 117.64C222.125 118.48 223.385 119.656 224.297 121.168C225.209 122.68 225.665 124.396 225.665 126.316C225.665 128.236 225.209 129.952 224.297 131.464C223.385 132.976 222.125 134.164 220.517 135.028C218.909 135.868 217.085 136.288 215.045 136.288ZM215.045 131.68C216.485 131.68 217.661 131.2 218.573 130.24C219.509 129.256 219.977 127.948 219.977 126.316C219.977 124.684 219.509 123.388 218.573 122.428C217.661 121.444 216.485 120.952 215.045 120.952C213.605 120.952 212.417 121.444 211.481 122.428C210.545 123.388 210.077 124.684 210.077 126.316C210.077 127.948 210.545 129.256 211.481 130.24C212.417 131.2 213.605 131.68 215.045 131.68ZM238.744 136.288C236.68 136.288 234.82 135.868 233.164 135.028C231.532 134.164 230.248 132.976 229.312 131.464C228.4 129.952 227.944 128.236 227.944 126.316C227.944 124.396 228.4 122.68 229.312 121.168C230.248 119.656 231.532 118.48 233.164 117.64C234.82 116.776 236.68 116.344 238.744 116.344C240.784 116.344 242.56 116.776 244.072 117.64C245.608 118.48 246.724 119.692 247.42 121.276L243.064 123.616C242.056 121.84 240.604 120.952 238.708 120.952C237.244 120.952 236.032 121.432 235.072 122.392C234.112 123.352 233.632 124.66 233.632 126.316C233.632 127.972 234.112 129.28 235.072 130.24C236.032 131.2 237.244 131.68 238.708 131.68C240.628 131.68 242.08 130.792 243.064 129.016L247.42 131.392C246.724 132.928 245.608 134.128 244.072 134.992C242.56 135.856 240.784 136.288 238.744 136.288ZM267.035 121.24H260.483V136H254.903V121.24H248.351V116.632H267.035V121.24ZM280.504 122.824C283.024 122.848 284.956 123.424 286.3 124.552C287.644 125.656 288.316 127.228 288.316 129.268C288.316 131.404 287.56 133.072 286.048 134.272C284.56 135.448 282.46 136.036 279.748 136.036L270.028 136V116.632H275.608V122.824H280.504ZM279.244 132.04C280.324 132.064 281.152 131.836 281.728 131.356C282.304 130.876 282.592 130.156 282.592 129.196C282.592 128.26 282.304 127.576 281.728 127.144C281.176 126.712 280.348 126.484 279.244 126.46L275.608 126.424V132.04H279.244ZM310.149 116.344C312.117 116.344 313.881 116.776 315.441 117.64C317.001 118.48 318.225 119.656 319.113 121.168C320.001 122.68 320.445 124.396 320.445 126.316C320.445 128.236 320.001 129.952 319.113 131.464C318.225 132.976 317.001 134.164 315.441 135.028C313.881 135.868 312.117 136.288 310.149 136.288C308.445 136.288 306.885 135.976 305.469 135.352C304.053 134.704 302.877 133.804 301.941 132.652C301.005 131.476 300.381 130.132 300.069 128.62H297.405V136H291.825V116.632H297.405V123.76H300.105C300.657 121.504 301.833 119.704 303.633 118.36C305.433 117.016 307.605 116.344 310.149 116.344ZM310.149 131.68C311.517 131.68 312.645 131.2 313.533 130.24C314.445 129.256 314.901 127.948 314.901 126.316C314.901 124.66 314.445 123.352 313.533 122.392C312.645 121.432 311.517 120.952 310.149 120.952C308.757 120.952 307.605 121.432 306.693 122.392C305.805 123.352 305.361 124.66 305.361 126.316C305.361 127.948 305.805 129.256 306.693 130.24C307.605 131.2 308.757 131.68 310.149 131.68ZM11.232 176.656H8.316V184H2.7V164.632H8.316V172.156H11.34L16.596 164.632H22.572L15.804 173.92L23.04 184H16.416L11.232 176.656ZM34.272 184.288C32.232 184.288 30.396 183.868 28.764 183.028C27.156 182.164 25.896 180.976 24.984 179.464C24.072 177.952 23.616 176.236 23.616 174.316C23.616 172.396 24.072 170.68 24.984 169.168C25.896 167.656 27.156 166.48 28.764 165.64C30.396 164.776 32.232 164.344 34.272 164.344C36.312 164.344 38.136 164.776 39.744 165.64C41.352 166.48 42.612 167.656 43.524 169.168C44.436 170.68 44.892 172.396 44.892 174.316C44.892 176.236 44.436 177.952 43.524 179.464C42.612 180.976 41.352 182.164 39.744 183.028C38.136 183.868 36.312 184.288 34.272 184.288ZM34.272 179.68C35.712 179.68 36.888 179.2 37.8 178.24C38.736 177.256 39.204 175.948 39.204 174.316C39.204 172.684 38.736 171.388 37.8 170.428C36.888 169.444 35.712 168.952 34.272 168.952C32.832 168.952 31.644 169.444 30.708 170.428C29.772 171.388 29.304 172.684 29.304 174.316C29.304 175.948 29.772 177.256 30.708 178.24C31.644 179.2 32.832 179.68 34.272 179.68ZM48.7547 164.632H54.3347V172.192H62.7587V164.632H68.3747V184H62.7587V176.764H54.3347V184H48.7547V164.632ZM90.0228 169.24H83.4708V184H77.8908V169.24H71.3388V164.632H90.0228V169.24ZM104.428 164.344C106.228 164.344 107.86 164.764 109.324 165.604C110.812 166.42 111.976 167.584 112.816 169.096C113.656 170.584 114.076 172.324 114.076 174.316C114.076 176.308 113.656 178.06 112.816 179.572C111.976 181.06 110.812 182.224 109.324 183.064C107.86 183.88 106.228 184.288 104.428 184.288C101.956 184.288 100.012 183.508 98.5964 181.948V190.984H92.9804V164.632H98.3444V166.864C99.7364 165.184 101.764 164.344 104.428 164.344ZM103.456 179.68C104.896 179.68 106.072 179.2 106.984 178.24C107.92 177.256 108.388 175.948 108.388 174.316C108.388 172.684 107.92 171.388 106.984 170.428C106.072 169.444 104.896 168.952 103.456 168.952C102.016 168.952 100.828 169.444 99.8924 170.428C98.9804 171.388 98.5244 172.684 98.5244 174.316C98.5244 175.948 98.9804 177.256 99.8924 178.24C100.828 179.2 102.016 179.68 103.456 179.68ZM127.085 184.288C125.045 184.288 123.209 183.868 121.577 183.028C119.969 182.164 118.709 180.976 117.797 179.464C116.885 177.952 116.429 176.236 116.429 174.316C116.429 172.396 116.885 170.68 117.797 169.168C118.709 167.656 119.969 166.48 121.577 165.64C123.209 164.776 125.045 164.344 127.085 164.344C129.125 164.344 130.949 164.776 132.557 165.64C134.165 166.48 135.425 167.656 136.337 169.168C137.249 170.68 137.705 172.396 137.705 174.316C137.705 176.236 137.249 177.952 136.337 179.464C135.425 180.976 134.165 182.164 132.557 183.028C130.949 183.868 129.125 184.288 127.085 184.288ZM127.085 179.68C128.525 179.68 129.701 179.2 130.613 178.24C131.549 177.256 132.017 175.948 132.017 174.316C132.017 172.684 131.549 171.388 130.613 170.428C129.701 169.444 128.525 168.952 127.085 168.952C125.645 168.952 124.457 169.444 123.521 170.428C122.585 171.388 122.117 172.684 122.117 174.316C122.117 175.948 122.585 177.256 123.521 178.24C124.457 179.2 125.645 179.68 127.085 179.68ZM159.862 164.632V184H154.246V169.24H148.126L147.946 172.66C147.85 175.204 147.61 177.316 147.226 178.996C146.842 180.676 146.218 181.996 145.354 182.956C144.49 183.916 143.29 184.396 141.754 184.396C140.938 184.396 139.966 184.252 138.838 183.964L139.126 179.356C139.51 179.404 139.786 179.428 139.954 179.428C140.794 179.428 141.418 179.128 141.826 178.528C142.258 177.904 142.546 177.124 142.69 176.188C142.834 175.228 142.942 173.968 143.014 172.408L143.302 164.632H159.862ZM165.263 164.632H170.843V176.152L180.275 164.632H185.423V184H179.843V172.48L170.447 184H165.263V164.632ZM202.233 164.344C204.033 164.344 205.665 164.764 207.129 165.604C208.617 166.42 209.781 167.584 210.621 169.096C211.461 170.584 211.881 172.324 211.881 174.316C211.881 176.308 211.461 178.06 210.621 179.572C209.781 181.06 208.617 182.224 207.129 183.064C205.665 183.88 204.033 184.288 202.233 184.288C199.761 184.288 197.817 183.508 196.401 181.948V190.984H190.785V164.632H196.149V166.864C197.541 165.184 199.569 164.344 202.233 164.344ZM201.261 179.68C202.701 179.68 203.877 179.2 204.789 178.24C205.725 177.256 206.193 175.948 206.193 174.316C206.193 172.684 205.725 171.388 204.789 170.428C203.877 169.444 202.701 168.952 201.261 168.952C199.821 168.952 198.633 169.444 197.697 170.428C196.785 171.388 196.329 172.684 196.329 174.316C196.329 175.948 196.785 177.256 197.697 178.24C198.633 179.2 199.821 179.68 201.261 179.68ZM224.889 184.288C222.849 184.288 221.013 183.868 219.381 183.028C217.773 182.164 216.513 180.976 215.601 179.464C214.689 177.952 214.233 176.236 214.233 174.316C214.233 172.396 214.689 170.68 215.601 169.168C216.513 167.656 217.773 166.48 219.381 165.64C221.013 164.776 222.849 164.344 224.889 164.344C226.929 164.344 228.753 164.776 230.361 165.64C231.969 166.48 233.229 167.656 234.141 169.168C235.053 170.68 235.509 172.396 235.509 174.316C235.509 176.236 235.053 177.952 234.141 179.464C233.229 180.976 231.969 182.164 230.361 183.028C228.753 183.868 226.929 184.288 224.889 184.288ZM224.889 179.68C226.329 179.68 227.505 179.2 228.417 178.24C229.353 177.256 229.821 175.948 229.821 174.316C229.821 172.684 229.353 171.388 228.417 170.428C227.505 169.444 226.329 168.952 224.889 168.952C223.449 168.952 222.261 169.444 221.325 170.428C220.389 171.388 219.921 172.684 219.921 174.316C219.921 175.948 220.389 177.256 221.325 178.24C222.261 179.2 223.449 179.68 224.889 179.68ZM254.168 173.884C256.448 174.652 257.588 176.188 257.588 178.492C257.588 180.244 256.928 181.6 255.608 182.56C254.288 183.52 252.32 184 249.704 184H239.372V164.632H249.272C251.696 164.632 253.592 165.076 254.96 165.964C256.328 166.828 257.012 168.052 257.012 169.636C257.012 170.596 256.76 171.448 256.256 172.192C255.776 172.912 255.08 173.476 254.168 173.884ZM244.52 172.588H248.768C250.736 172.588 251.72 171.892 251.72 170.5C251.72 169.132 250.736 168.448 248.768 168.448H244.52V172.588ZM249.236 180.184C251.3 180.184 252.332 179.476 252.332 178.06C252.332 177.316 252.092 176.776 251.612 176.44C251.132 176.08 250.376 175.9 249.344 175.9H244.52V180.184H249.236ZM269.29 164.344C272.29 164.344 274.594 165.064 276.202 166.504C277.81 167.92 278.614 170.068 278.614 172.948V184H273.358V181.588C272.302 183.388 270.334 184.288 267.454 184.288C265.966 184.288 264.67 184.036 263.566 183.532C262.486 183.028 261.658 182.332 261.082 181.444C260.506 180.556 260.218 179.548 260.218 178.42C260.218 176.62 260.89 175.204 262.234 174.172C263.602 173.14 265.702 172.624 268.534 172.624H272.998C272.998 171.4 272.626 170.464 271.882 169.816C271.138 169.144 270.022 168.808 268.534 168.808C267.502 168.808 266.482 168.976 265.474 169.312C264.49 169.624 263.65 170.056 262.954 170.608L260.938 166.684C261.994 165.94 263.254 165.364 264.718 164.956C266.206 164.548 267.73 164.344 269.29 164.344ZM268.858 180.508C269.818 180.508 270.67 180.292 271.414 179.86C272.158 179.404 272.686 178.744 272.998 177.88V175.9H269.146C266.842 175.9 265.69 176.656 265.69 178.168C265.69 178.888 265.966 179.464 266.518 179.896C267.094 180.304 267.874 180.508 268.858 180.508ZM299.765 169.24H293.213V184H287.633V169.24H281.081V164.632H299.765V169.24ZM313.235 170.824C315.755 170.848 317.687 171.424 319.031 172.552C320.375 173.656 321.047 175.228 321.047 177.268C321.047 179.404 320.291 181.072 318.779 182.272C317.291 183.448 315.191 184.036 312.479 184.036L302.759 184V164.632H308.339V170.824H313.235ZM311.975 180.04C313.055 180.064 313.883 179.836 314.459 179.356C315.035 178.876 315.323 178.156 315.323 177.196C315.323 176.26 315.035 175.576 314.459 175.144C313.907 174.712 313.079 174.484 311.975 174.46L308.339 174.424V180.04H311.975ZM349.547 173.884C351.827 174.652 352.967 176.188 352.967 178.492C352.967 180.244 352.307 181.6 350.987 182.56C349.667 183.52 347.699 184 345.083 184H334.751V164.632H344.651C347.075 164.632 348.971 165.076 350.339 165.964C351.707 166.828 352.391 168.052 352.391 169.636C352.391 170.596 352.139 171.448 351.635 172.192C351.155 172.912 350.459 173.476 349.547 173.884ZM339.899 172.588H344.147C346.115 172.588 347.099 171.892 347.099 170.5C347.099 169.132 346.115 168.448 344.147 168.448H339.899V172.588ZM344.615 180.184C346.679 180.184 347.711 179.476 347.711 178.06C347.711 177.316 347.471 176.776 346.991 176.44C346.511 176.08 345.755 175.9 344.723 175.9H339.899V180.184H344.615ZM364.669 164.344C367.669 164.344 369.973 165.064 371.581 166.504C373.189 167.92 373.993 170.068 373.993 172.948V184H368.737V181.588C367.681 183.388 365.713 184.288 362.833 184.288C361.345 184.288 360.049 184.036 358.945 183.532C357.865 183.028 357.037 182.332 356.461 181.444C355.885 180.556 355.597 179.548 355.597 178.42C355.597 176.62 356.269 175.204 357.613 174.172C358.981 173.14 361.081 172.624 363.913 172.624H368.377C368.377 171.4 368.005 170.464 367.261 169.816C366.517 169.144 365.401 168.808 363.913 168.808C362.881 168.808 361.861 168.976 360.853 169.312C359.869 169.624 359.029 170.056 358.333 170.608L356.317 166.684C357.373 165.94 358.633 165.364 360.097 164.956C361.585 164.548 363.109 164.344 364.669 164.344ZM364.237 180.508C365.197 180.508 366.049 180.292 366.793 179.86C367.537 179.404 368.065 178.744 368.377 177.88V175.9H364.525C362.221 175.9 361.069 176.656 361.069 178.168C361.069 178.888 361.345 179.464 361.897 179.896C362.473 180.304 363.253 180.508 364.237 180.508ZM408.428 164.632V184H378.872V164.632H384.452V179.392H390.896V164.632H396.476V179.392H402.848V164.632H408.428ZM413.817 164.632H419.397V176.152L428.829 164.632H433.977V184H428.397V172.48L419.001 184H413.817V164.632ZM15.264 221.92C16.416 222.28 17.304 222.832 17.928 223.576C18.576 224.32 18.9 225.208 18.9 226.24C18.9 227.464 18.48 228.544 17.64 229.48C16.8 230.392 15.648 231.1 14.184 231.604C12.72 232.108 11.064 232.36 9.216 232.36C7.704 232.36 6.216 232.204 4.752 231.892C3.288 231.58 1.932 231.112 0.684 230.488L2.196 226.564C4.236 227.548 6.492 228.04 8.964 228.04C10.284 228.04 11.316 227.848 12.06 227.464C12.828 227.056 13.212 226.492 13.212 225.772C13.212 225.148 12.948 224.68 12.42 224.368C11.892 224.032 11.124 223.864 10.116 223.864H6.156V220.372H9.612C10.596 220.372 11.352 220.216 11.88 219.904C12.408 219.592 12.672 219.136 12.672 218.536C12.672 217.912 12.336 217.432 11.664 217.096C11.016 216.76 10.08 216.592 8.856 216.592C6.984 216.592 4.944 217.036 2.736 217.924L1.368 214.036C4.056 212.86 6.672 212.272 9.216 212.272C10.968 212.272 12.528 212.488 13.896 212.92C15.288 213.352 16.38 213.988 17.172 214.828C17.964 215.644 18.36 216.604 18.36 217.708C18.36 218.62 18.084 219.448 17.532 220.192C16.98 220.912 16.224 221.488 15.264 221.92ZM30.5092 212.344C33.5092 212.344 35.8132 213.064 37.4212 214.504C39.0292 215.92 39.8332 218.068 39.8332 220.948V232H34.5772V229.588C33.5212 231.388 31.5532 232.288 28.6732 232.288C27.1852 232.288 25.8892 232.036 24.7852 231.532C23.7052 231.028 22.8772 230.332 22.3012 229.444C21.7252 228.556 21.4372 227.548 21.4372 226.42C21.4372 224.62 22.1092 223.204 23.4532 222.172C24.8212 221.14 26.9212 220.624 29.7532 220.624H34.2172C34.2172 219.4 33.8452 218.464 33.1012 217.816C32.3572 217.144 31.2412 216.808 29.7532 216.808C28.7212 216.808 27.7012 216.976 26.6932 217.312C25.7092 217.624 24.8692 218.056 24.1732 218.608L22.1572 214.684C23.2132 213.94 24.4732 213.364 25.9372 212.956C27.4252 212.548 28.9492 212.344 30.5092 212.344ZM30.0772 228.508C31.0372 228.508 31.8892 228.292 32.6332 227.86C33.3772 227.404 33.9052 226.744 34.2172 225.88V223.9H30.3652C28.0612 223.9 26.9092 224.656 26.9092 226.168C26.9092 226.888 27.1852 227.464 27.7372 227.896C28.3132 228.304 29.0932 228.508 30.0772 228.508ZM66.4197 227.392V236.176H61.1997V232H47.5917V236.176H42.3717V227.392H43.1637C44.3637 227.368 45.1917 226.66 45.6477 225.268C46.1037 223.876 46.3917 221.896 46.5117 219.328L46.7637 212.632H63.6477V227.392H66.4197ZM51.5877 219.724C51.5157 221.692 51.3597 223.3 51.1197 224.548C50.9037 225.796 50.4837 226.744 49.8597 227.392H58.0317V217.24H51.6957L51.5877 219.724ZM77.4779 212.344C80.4779 212.344 82.7819 213.064 84.3899 214.504C85.9979 215.92 86.8019 218.068 86.8019 220.948V232H81.5459V229.588C80.4899 231.388 78.5219 232.288 75.6419 232.288C74.1539 232.288 72.8579 232.036 71.7539 231.532C70.6739 231.028 69.8459 230.332 69.2699 229.444C68.6939 228.556 68.4059 227.548 68.4059 226.42C68.4059 224.62 69.0779 223.204 70.4219 222.172C71.7899 221.14 73.8899 220.624 76.7219 220.624H81.1859C81.1859 219.4 80.8139 218.464 80.0699 217.816C79.3259 217.144 78.2099 216.808 76.7219 216.808C75.6899 216.808 74.6699 216.976 73.6619 217.312C72.6779 217.624 71.8379 218.056 71.1419 218.608L69.1259 214.684C70.1819 213.94 71.4419 213.364 72.9059 212.956C74.3939 212.548 75.9179 212.344 77.4779 212.344ZM77.0459 228.508C78.0059 228.508 78.8579 228.292 79.6019 227.86C80.3459 227.404 80.8739 226.744 81.1859 225.88V223.9H77.3339C75.0299 223.9 73.8779 224.656 73.8779 226.168C73.8779 226.888 74.1539 227.464 74.7059 227.896C75.2819 228.304 76.0619 228.508 77.0459 228.508ZM109.104 212.632V232H103.488V224.8C101.856 225.616 100.056 226.024 98.0885 226.024C95.4725 226.024 93.4925 225.436 92.1485 224.26C90.8285 223.06 90.1685 221.212 90.1685 218.716V212.632H95.7845V218.356C95.7845 219.532 96.0845 220.384 96.6845 220.912C97.3085 221.44 98.1965 221.704 99.3485 221.704C100.812 221.704 102.192 221.392 103.488 220.768V212.632H109.104ZM114.497 212.632H120.077V224.152L129.509 212.632H134.657V232H129.077V220.48L119.681 232H114.497V212.632Z" fill="#063D3F"/>
<defs>
<linearGradient id="paint0_linear" x1="683.749" y1="137.233" x2="161.069" y2="639.249" gradientUnits="userSpaceOnUse">
<stop stop-color="white" stop-opacity="0"/>
<stop offset="0.23" stop-color="white" stop-opacity="0.23"/>
<stop offset="0.95" stop-color="white"/>
</linearGradient>
<linearGradient id="paint1_linear" x1="559.756" y1="212.603" x2="630.924" y2="103.339" gradientUnits="userSpaceOnUse">
<stop stop-color="#010101" stop-opacity="0"/>
<stop offset="0.95" stop-color="#010101"/>
</linearGradient>
<linearGradient id="paint2_linear" x1="8252.18" y1="9559.91" x2="1935.68" y2="11719.3" gradientUnits="userSpaceOnUse">
<stop stop-color="#010101" stop-opacity="0"/>
<stop offset="0.95" stop-color="#010101"/>
</linearGradient>
<linearGradient id="paint3_linear" x1="7394.65" y1="9450.56" x2="1020.39" y2="12966" gradientUnits="userSpaceOnUse">
<stop stop-color="#010101" stop-opacity="0"/>
<stop offset="0.95" stop-color="#010101"/>
</linearGradient>
<linearGradient id="paint4_linear" x1="9829.98" y1="7268.6" x2="10570.3" y2="8013.24" gradientUnits="userSpaceOnUse">
<stop stop-color="#010101" stop-opacity="0"/>
<stop offset="0.95" stop-color="#010101"/>
</linearGradient>
<linearGradient id="paint5_linear" x1="699.423" y1="221.462" x2="724.449" y2="219.372" gradientUnits="userSpaceOnUse">
<stop stop-color="#E4C5D5"/>
<stop offset="0.42" stop-color="#E9D3CF"/>
<stop offset="1" stop-color="#EFE8CA"/>
</linearGradient>
<linearGradient id="paint6_linear" x1="13473" y1="21366.2" x2="10198.2" y2="19237.9" gradientUnits="userSpaceOnUse">
<stop stop-color="#010101" stop-opacity="0"/>
<stop offset="0.95" stop-color="#010101"/>
</linearGradient>
<linearGradient id="paint7_linear" x1="6901.91" y1="5620.72" x2="7649.7" y2="5620.72" gradientUnits="userSpaceOnUse">
<stop stop-color="#010101" stop-opacity="0"/>
<stop offset="0.95" stop-color="#010101"/>
</linearGradient>
<linearGradient id="paint8_linear" x1="28808" y1="-2066.92" x2="29029.2" y2="1245.1" gradientUnits="userSpaceOnUse">
<stop stop-color="white" stop-opacity="0"/>
<stop offset="0.23" stop-color="white" stop-opacity="0.23"/>
<stop offset="0.95" stop-color="white"/>
</linearGradient>
<linearGradient id="paint9_linear" x1="32138.9" y1="-7041.56" x2="32866.1" y2="-3805.84" gradientUnits="userSpaceOnUse">
<stop stop-color="white" stop-opacity="0"/>
<stop offset="0.23" stop-color="white" stop-opacity="0.23"/>
<stop offset="0.95" stop-color="white"/>
</linearGradient>
<linearGradient id="paint10_linear" x1="34552.4" y1="-13452.4" x2="35795.9" y2="-10384.6" gradientUnits="userSpaceOnUse">
<stop stop-color="white" stop-opacity="0"/>
<stop offset="0.23" stop-color="white" stop-opacity="0.23"/>
<stop offset="0.95" stop-color="white"/>
</linearGradient>
<linearGradient id="paint11_linear" x1="3749.76" y1="6160.16" x2="3840.93" y2="6160.16" gradientUnits="userSpaceOnUse">
<stop stop-color="#E4C5D5"/>
<stop offset="0.42" stop-color="#E9D3CF"/>
<stop offset="1" stop-color="#EFE8CA"/>
</linearGradient>
<linearGradient id="paint12_linear" x1="12127.6" y1="22308.7" x2="25202" y2="26289.9" gradientUnits="userSpaceOnUse">
<stop stop-color="#010101" stop-opacity="0"/>
<stop offset="0.95" stop-color="#010101"/>
</linearGradient>
<linearGradient id="paint13_linear" x1="77641.7" y1="25638.4" x2="76190.6" y2="74811.1" gradientUnits="userSpaceOnUse">
<stop stop-color="#010101" stop-opacity="0"/>
<stop offset="0.95" stop-color="#010101"/>
</linearGradient>
<linearGradient id="paint14_linear" x1="467.167" y1="459.289" x2="313.64" y2="724.724" gradientUnits="userSpaceOnUse">
<stop stop-opacity="0"/>
<stop offset="0.98"/>
</linearGradient>
<linearGradient id="paint15_linear" x1="7912.48" y1="-24210.8" x2="10332.7" y2="-22651.5" gradientUnits="userSpaceOnUse">
<stop stop-opacity="0"/>
<stop offset="0.98"/>
</linearGradient>
<linearGradient id="paint16_linear" x1="476.364" y1="188.752" x2="497.656" y2="188.752" gradientUnits="userSpaceOnUse">
<stop stop-color="#ECC4D7"/>
<stop offset="0.42" stop-color="#EFD4D1"/>
<stop offset="1" stop-color="#F2EAC9"/>
</linearGradient>
<linearGradient id="paint17_linear" x1="14239.2" y1="-398.905" x2="14238.9" y2="253.216" gradientUnits="userSpaceOnUse">
<stop stop-opacity="0"/>
<stop offset="0.98"/>
</linearGradient>
<linearGradient id="paint18_linear" x1="-68524.6" y1="-5126.92" x2="-68881.7" y2="-5129.5" gradientUnits="userSpaceOnUse">
<stop stop-color="#ECC4D7"/>
<stop offset="0.42" stop-color="#EFD4D1"/>
<stop offset="1" stop-color="#F2EAC9"/>
</linearGradient>
<linearGradient id="paint19_linear" x1="-133672" y1="-5863.89" x2="-133514" y2="-5808.05" gradientUnits="userSpaceOnUse">
<stop stop-color="#ECC4D7"/>
<stop offset="0.42" stop-color="#EFD4D1"/>
<stop offset="1" stop-color="#F2EAC9"/>
</linearGradient>
<linearGradient id="paint20_linear" x1="3282.28" y1="4154.15" x2="3374.21" y2="4154.15" gradientUnits="userSpaceOnUse">
<stop stop-color="#ECC4D7"/>
<stop offset="0.42" stop-color="#EFD4D1"/>
<stop offset="1" stop-color="#F2EAC9"/>
</linearGradient>
<linearGradient id="paint21_linear" x1="18624.4" y1="-20628.5" x2="30487" y2="-15901.3" gradientUnits="userSpaceOnUse">
<stop stop-opacity="0"/>
<stop offset="0.98"/>
</linearGradient>
<clipPath id="clip0">
<rect width="745" height="545" fill="white" transform="translate(251)"/>
</clipPath>
</defs>
</svg>
