<svg width="30" height="30" viewBox="0 0 30 30" fill="none" xmlns="http://www.w3.org/2000/svg">
<path d="M15 30C23.2843 30 30 23.2843 30 15C30 6.71573 23.2843 0 15 0C6.71573 0 0 6.71573 0 15C0 23.2843 6.71573 30 15 30Z" fill="url(#paint0_linear)"/>
<path d="M13.7272 20.7517H13.157C13.0917 20.7517 13.0291 20.7776 12.983 20.8238C12.9368 20.8699 12.9109 20.9325 12.9109 20.9978C12.9109 21.063 12.9368 21.1256 12.983 21.1718C13.0291 21.2179 13.0917 21.2439 13.157 21.2439H13.7272C13.7925 21.2439 13.855 21.2179 13.9012 21.1718C13.9474 21.1256 13.9733 21.063 13.9733 20.9978C13.9733 20.9325 13.9474 20.8699 13.9012 20.8238C13.855 20.7776 13.7925 20.7517 13.7272 20.7517Z" fill="white"/>
<path d="M15.9771 20.7517C15.9119 20.7517 15.8493 20.7776 15.8031 20.8238C15.757 20.8699 15.7311 20.9325 15.7311 20.9978C15.7311 21.063 15.757 21.1256 15.8031 21.1718C15.8493 21.2179 15.9119 21.2439 15.9771 21.2439H16.547C16.6122 21.2439 16.6748 21.2179 16.721 21.1718C16.7671 21.1256 16.793 21.063 16.793 20.9978C16.793 20.9325 16.7671 20.8699 16.721 20.8238C16.6748 20.7776 16.6122 20.7517 16.547 20.7517H15.9771Z" fill="white"/>
<path d="M23.0765 11.4469C23.0558 11.4069 23.0244 11.3734 22.9859 11.35C22.9474 11.3267 22.9032 11.3143 22.8582 11.3144H21.4124C21.831 10.9689 22.1729 10.5399 22.4163 10.0548C22.6598 9.56976 22.7993 9.03924 22.8261 8.49714L22.9527 6.2604C22.9559 6.20544 22.9406 6.15096 22.9091 6.10572C22.8777 6.06048 22.832 6.02712 22.7794 6.01086C22.7267 5.99469 22.6702 5.99661 22.6188 6.01638C22.5674 6.03612 22.524 6.07254 22.4958 6.11982L21.1677 8.33982C20.9604 8.68392 20.6679 8.96874 20.3184 9.16686C19.969 9.36492 19.5743 9.46956 19.1726 9.4707C18.7788 9.4701 18.3917 9.36936 18.0476 9.1779C17.5492 8.89992 16.9796 8.77602 16.4107 8.82198C15.8418 8.86794 15.2994 9.08166 14.8521 9.43608C14.4048 9.08172 13.8625 8.86812 13.2937 8.82222C12.725 8.77638 12.1553 8.90034 11.6571 9.17844C11.313 9.36978 10.9259 9.47052 10.5321 9.47112C10.1304 9.46998 9.7357 9.36534 9.38626 9.16728C9.03676 8.96916 8.74426 8.68434 8.53696 8.34024L7.20892 6.12024C7.18066 6.07296 7.13734 6.03654 7.08592 6.0168C7.0345 5.99704 6.97798 5.99511 6.9253 6.01134C6.87268 6.02754 6.82702 6.0609 6.79558 6.10614C6.76414 6.15138 6.74884 6.20586 6.75202 6.26082L6.87862 8.49756C6.90538 9.03954 7.04494 9.56994 7.28824 10.055C7.5316 10.54 7.87342 10.9689 8.29186 11.3144H6.8461C6.8011 11.3144 6.75688 11.3267 6.71842 11.3501C6.6799 11.3734 6.64852 11.407 6.62776 11.4469C6.60694 11.4869 6.59752 11.5318 6.60052 11.5767C6.60346 11.6216 6.61876 11.6649 6.64462 11.7018L6.8215 11.9539C7.2364 12.5446 7.78042 13.033 8.41234 13.382C9.0442 13.7309 9.74734 13.9313 10.4682 13.9678C10.5021 15.2164 10.833 16.4391 11.4333 17.5345L12.6093 19.672C12.3086 19.7685 12.0497 19.9644 11.875 20.2276C11.7003 20.4907 11.6203 20.8054 11.6481 21.12C11.6759 21.4346 11.8099 21.7304 12.028 21.9589C12.2461 22.1873 12.5354 22.3348 12.8484 22.3771C12.9054 22.825 13.1237 23.2369 13.4623 23.5355C13.8009 23.8342 14.2368 23.9993 14.6883 24H15.0159C15.4676 23.9993 15.9036 23.834 16.2422 23.5351C16.5808 23.2362 16.7989 22.8242 16.8557 22.3761C17.1687 22.3338 17.458 22.1863 17.6762 21.9579C17.8943 21.7295 18.0282 21.4337 18.056 21.119C18.0838 20.8044 18.0038 20.4897 17.8292 20.2265C17.6544 19.9634 17.3955 19.7675 17.0948 19.6709L18.2708 17.5335C18.8713 16.4381 19.2021 15.2155 19.236 13.9668C19.9569 13.9303 20.6601 13.7299 21.2919 13.381C21.9239 13.032 22.4679 12.5437 22.8828 11.9529L23.0597 11.7008C23.0853 11.664 23.1005 11.6209 23.1035 11.5762C23.1065 11.5314 23.0972 11.4867 23.0765 11.4469ZM7.36954 8.46942L7.29922 7.23054L8.1148 8.59278C8.36596 9.00978 8.72032 9.35496 9.1438 9.59502C9.56728 9.83514 10.0455 9.96192 10.5323 9.9633C11.0096 9.9627 11.4791 9.84066 11.8962 9.60864C12.3368 9.36276 12.8437 9.26244 13.3446 9.32208C13.8455 9.38172 14.3148 9.5982 14.6852 9.94062C14.7307 9.98262 14.7903 10.0059 14.8521 10.0059C14.914 10.0059 14.9736 9.98262 15.0191 9.94062C15.3895 9.5982 15.8588 9.38166 16.3597 9.32202C16.8606 9.26238 17.3676 9.36264 17.8082 9.60846C18.2253 9.8406 18.6948 9.9627 19.1722 9.9633C19.659 9.96192 20.1372 9.83514 20.5606 9.59502C20.9841 9.35496 21.3385 9.00978 21.5896 8.59278L22.4044 7.23054L22.3341 8.46942C22.2842 9.33018 21.9168 10.1417 21.303 10.7472C20.6892 11.3527 19.8726 11.7089 19.0113 11.747C19.0064 11.747 19.0017 11.7455 18.9972 11.7455C18.9871 11.7459 18.977 11.7469 18.967 11.7486C18.4493 11.7619 17.9352 11.6591 17.4624 11.4478C17.092 11.2841 16.6917 11.1993 16.2867 11.1988C16.2126 11.1988 16.1404 11.2019 16.0656 11.2069L14.8521 11.3018L13.6365 11.2075C13.1591 11.1751 12.681 11.2577 12.2422 11.4485C11.7691 11.6598 11.2547 11.7626 10.7367 11.7493C10.727 11.7476 10.7172 11.7466 10.7075 11.7462C10.7027 11.7462 10.6982 11.7473 10.6934 11.7476C9.83176 11.7098 9.0148 11.3536 8.40076 10.748C7.78666 10.1424 7.41922 9.33048 7.36954 8.46942ZM7.32322 11.8066H9.03886C9.48208 12.035 9.96484 12.177 10.4612 12.2249V13.4757C9.8488 13.4399 9.25138 13.2722 8.70982 12.9841C8.1682 12.696 7.69522 12.2944 7.32322 11.8066ZM15.0159 23.5078H14.6883C14.3696 23.5073 14.0611 23.3953 13.8163 23.1912C13.5715 22.9871 13.4058 22.7038 13.3481 22.3903H13.8568C14.0423 22.39 14.2258 22.3528 14.3967 22.2807C14.5676 22.2087 14.7224 22.1033 14.8521 21.9708C14.9819 22.1034 15.1367 22.2089 15.3075 22.2809C15.4784 22.3531 15.662 22.3904 15.8475 22.3907H16.3568C16.2989 22.7042 16.1331 22.9875 15.8882 23.1916C15.6433 23.3956 15.3347 23.5075 15.0159 23.5078ZM17.5689 20.9973C17.5687 21.2362 17.4737 21.4654 17.3047 21.6343C17.1357 21.8033 16.9067 21.8983 16.6677 21.8986H15.8475C15.6887 21.8981 15.5329 21.8558 15.3956 21.7761C15.2584 21.6963 15.1446 21.5818 15.0656 21.4441C15.0441 21.4064 15.013 21.3752 14.9755 21.3535C14.9381 21.3317 14.8955 21.3203 14.8521 21.3203C14.8088 21.3203 14.7662 21.3317 14.7288 21.3535C14.6913 21.3752 14.6602 21.4064 14.6387 21.4441C14.5597 21.5818 14.4459 21.6962 14.3086 21.776C14.1714 21.8558 14.0156 21.8981 13.8568 21.8986H13.0366C12.7995 21.8956 12.5731 21.7993 12.4065 21.6306C12.2399 21.4619 12.1464 21.2344 12.1464 20.9972C12.1464 20.7601 12.2399 20.5325 12.4065 20.3638C12.5731 20.1952 12.7995 20.0989 13.0366 20.0959H16.6677C16.9067 20.0962 17.1358 20.1913 17.3048 20.3602C17.4737 20.5292 17.5688 20.7583 17.5689 20.9973ZM17.8397 17.2971L16.5702 19.6033H13.134L11.8646 17.2971C11.2678 16.2109 10.9544 14.9918 10.9535 13.7525V12.2404C11.4671 12.2231 11.9724 12.1068 12.4418 11.8978C12.7492 11.7619 13.0815 11.6915 13.4177 11.6909C13.4805 11.6909 13.5418 11.6938 13.6005 11.6978L14.8323 11.7933C14.8453 11.7944 14.8584 11.7944 14.8714 11.7933L16.1009 11.698C16.4984 11.6708 16.8968 11.7394 17.2624 11.8978C17.7317 12.107 18.237 12.2236 18.7505 12.2409V13.7525C18.7497 14.9918 18.4364 16.2109 17.8397 17.2971ZM19.2429 13.4757V12.2242C19.7397 12.1765 20.2228 12.0346 20.6664 11.8061H22.3811C22.0091 12.294 21.5361 12.6958 20.9945 12.984C20.4528 13.2721 19.8554 13.4399 19.2429 13.4757Z" fill="white"/>
<path d="M12.8032 15.2666C12.7793 15.2448 12.7513 15.228 12.721 15.217C12.6905 15.206 12.6583 15.2012 12.626 15.2027C12.5937 15.2042 12.562 15.212 12.5328 15.2257C12.5035 15.2394 12.4772 15.2588 12.4555 15.2827C12.4337 15.3066 12.4169 15.3345 12.4059 15.3649C12.3949 15.3953 12.39 15.4276 12.3915 15.4599C12.393 15.4922 12.4009 15.5238 12.4146 15.5531C12.4283 15.5823 12.4477 15.6086 12.4716 15.6304L13.0649 16.1709C13.1131 16.2149 13.1768 16.2378 13.2421 16.2348C13.2743 16.2333 13.306 16.2255 13.3353 16.2117C13.3645 16.1979 13.3908 16.1786 13.4126 16.1547C13.4343 16.1308 13.4512 16.1028 13.4621 16.0724C13.4731 16.0421 13.4779 16.0098 13.4764 15.9775C13.4749 15.9452 13.4671 15.9135 13.4533 15.8843C13.4396 15.855 13.4202 15.8288 13.3963 15.807L12.8032 15.2666Z" fill="white"/>
<path d="M16.9013 15.2666L16.3079 15.807C16.2614 15.8514 16.234 15.9123 16.2317 15.9766C16.2294 16.0409 16.2524 16.1036 16.2958 16.1511C16.3391 16.1987 16.3994 16.2274 16.4636 16.2311C16.5279 16.2348 16.591 16.2132 16.6395 16.1709L17.2328 15.6304C17.2811 15.5864 17.3099 15.5251 17.3129 15.4599C17.3159 15.3947 17.2929 15.3309 17.2489 15.2827C17.2049 15.2345 17.1436 15.2057 17.0784 15.2027C17.0132 15.1996 16.9495 15.2226 16.9013 15.2666Z" fill="white"/>
<path d="M14.3423 15.9031C14.2377 15.5169 14.0252 15.1686 13.7297 14.8988C13.4343 14.629 13.068 14.449 12.6739 14.3799L12.5212 14.3533C12.4572 14.3429 12.3917 14.3581 12.3389 14.3958C12.2861 14.4334 12.2502 14.4903 12.2391 14.5542C12.228 14.6181 12.2425 14.6837 12.2796 14.7369C12.3166 14.7901 12.3731 14.8266 12.4369 14.8384L12.5896 14.8649C12.8914 14.9176 13.1719 15.0553 13.3984 15.2618C13.6248 15.4683 13.7876 15.7351 13.8678 16.0308L13.8945 16.1304C13.9085 16.1827 13.9393 16.229 13.9823 16.2621C14.0252 16.2951 14.0779 16.3131 14.1321 16.3132C14.1537 16.3132 14.1753 16.3103 14.1961 16.3046C14.2591 16.2876 14.3128 16.2464 14.3454 16.1899C14.378 16.1334 14.3868 16.0662 14.3698 16.0032L14.3423 15.9031Z" fill="white"/>
<path d="M17.1831 14.3534L17.0305 14.38C16.6365 14.4491 16.2702 14.629 15.9747 14.8988C15.6792 15.1686 15.4666 15.517 15.3619 15.9032L15.3352 16.0027C15.3183 16.0657 15.3271 16.1329 15.3597 16.1894C15.3922 16.2459 15.4459 16.2871 15.5089 16.3041C15.5298 16.3098 15.5514 16.3127 15.573 16.3126C15.6272 16.3126 15.6798 16.2946 15.7228 16.2616C15.7657 16.2285 15.7966 16.1822 15.8105 16.1299L15.8373 16.0303C15.9174 15.7347 16.0801 15.468 16.3063 15.2616C16.5326 15.055 16.813 14.9173 17.1147 14.8644L17.2672 14.838C17.331 14.8261 17.3875 14.7897 17.4245 14.7364C17.4615 14.6832 17.476 14.6175 17.4649 14.5537C17.4538 14.4898 17.418 14.4329 17.3652 14.3953C17.3124 14.3577 17.2468 14.3424 17.1828 14.3528L17.1831 14.3534Z" fill="white"/>
<defs>
<linearGradient id="paint0_linear" x1="15" y1="0" x2="15" y2="30" gradientUnits="userSpaceOnUse">
<stop stop-color="#56D3A5"/>
<stop offset="0.958333" stop-color="#56B1A6"/>
</linearGradient>
</defs>
</svg>
